<svg xmlns="http://www.w3.org/2000/svg" viewBox="0 0 910 920" width="910" height="920" role="img" aria-label="Kraken logo vector">
  <title>Kraken logo vector</title>
  <path fill="#000000" fill-rule="evenodd" d="M 457 12 L 463 12 L 468 17 L 468 76 L 496 76 L 531 79 L 592 90 L 649 108 L 689 127 L 734 158 L 769 194 L 786 218 L 797 238 L 810 277 L 838 284 L 848 292 L 851 300 L 851 314 L 859 316 L 866 322 L 871 333 L 873 347 L 873 410 L 871 426 L 865 446 L 857 455 L 844 458 L 842 470 L 838 478 L 831 484 L 797 489 L 790 515 L 778 542 L 766 560 L 749 577 L 718 595 L 691 604 L 678 606 L 676 609 L 700 641 L 719 660 L 734 671 L 746 677 L 763 682 L 783 681 L 791 678 L 801 670 L 805 662 L 805 657 L 797 647 L 796 633 L 799 626 L 806 618 L 820 610 L 828 608 L 845 608 L 856 611 L 872 620 L 882 631 L 886 639 L 886 648 L 880 656 L 891 660 L 896 667 L 898 675 L 897 698 L 895 704 L 890 709 L 881 711 L 880 713 L 880 717 L 887 723 L 888 733 L 879 753 L 874 760 L 863 769 L 854 770 L 849 767 L 846 768 L 844 770 L 846 774 L 845 783 L 833 796 L 824 802 L 805 810 L 796 809 L 788 802 L 782 804 L 780 812 L 775 817 L 748 822 L 735 822 L 725 819 L 721 815 L 719 807 L 712 807 L 707 813 L 701 815 L 688 814 L 672 808 L 679 825 L 679 838 L 677 845 L 674 848 L 675 856 L 671 866 L 653 885 L 643 889 L 636 889 L 628 885 L 625 893 L 615 900 L 601 903 L 577 903 L 568 897 L 566 890 L 561 890 L 553 897 L 542 897 L 534 894 L 520 887 L 509 878 L 506 871 L 507 862 L 495 864 L 484 858 L 474 845 L 467 829 L 467 903 L 462 908 L 454 907 L 451 903 L 452 793 L 442 778 L 436 759 L 427 771 L 419 773 L 419 776 L 424 782 L 424 792 L 419 806 L 412 818 L 399 832 L 394 834 L 383 833 L 381 835 L 383 845 L 379 854 L 361 871 L 344 880 L 336 880 L 325 875 L 322 877 L 320 885 L 314 891 L 288 899 L 266 899 L 262 897 L 256 889 L 246 895 L 232 895 L 208 884 L 204 880 L 203 875 L 196 872 L 187 862 L 180 845 L 180 828 L 184 818 L 174 818 L 170 816 L 166 810 L 160 810 L 159 815 L 148 822 L 136 822 L 121 819 L 102 812 L 96 806 L 94 796 L 88 795 L 81 800 L 69 799 L 55 790 L 43 778 L 37 767 L 37 758 L 40 750 L 27 747 L 20 740 L 13 723 L 12 703 L 15 697 L 22 693 L 18 681 L 20 664 L 27 649 L 39 634 L 51 625 L 72 617 L 88 617 L 96 619 L 106 624 L 113 631 L 118 640 L 119 652 L 114 662 L 110 665 L 109 670 L 117 679 L 130 683 L 143 682 L 163 673 L 176 663 L 197 639 L 212 611 L 176 611 L 151 604 L 135 596 L 125 589 L 110 573 L 102 558 L 98 542 L 99 516 L 109 491 L 132 465 L 141 460 L 137 449 L 131 418 L 127 371 L 128 344 L 132 313 L 139 285 L 148 260 L 168 221 L 192 188 L 221 158 L 261 128 L 299 108 L 346 91 L 401 79 L 451 76 L 451 18 Z M 446 99 L 432 100 L 429 102 L 414 102 L 369 111 L 328 124 L 298 137 L 275 150 L 245 172 L 224 192 L 200 221 L 184 246 L 170 275 L 161 302 L 155 333 L 153 355 L 154 397 L 158 427 L 163 451 L 167 460 L 167 466 L 162 473 L 153 478 L 137 494 L 129 507 L 126 520 L 128 530 L 135 543 L 152 558 L 171 566 L 186 569 L 201 570 L 226 568 L 228 569 L 227 571 L 230 570 L 233 573 L 230 574 L 231 577 L 227 575 L 228 577 L 225 577 L 226 579 L 222 578 L 222 581 L 231 580 L 237 582 L 239 577 L 246 588 L 246 595 L 240 597 L 238 609 L 232 624 L 221 645 L 206 666 L 184 687 L 160 701 L 140 706 L 129 706 L 113 702 L 100 695 L 92 687 L 86 674 L 87 659 L 96 649 L 96 645 L 89 639 L 76 638 L 64 643 L 58 648 L 51 662 L 50 680 L 56 700 L 65 716 L 79 731 L 92 740 L 117 751 L 135 755 L 168 755 L 202 746 L 220 737 L 242 722 L 268 694 L 281 673 L 284 677 L 290 679 L 289 676 L 284 675 L 282 671 L 293 648 L 295 647 L 296 651 L 296 639 L 298 637 L 303 637 L 305 639 L 306 682 L 304 703 L 299 729 L 292 751 L 276 782 L 258 802 L 239 814 L 229 817 L 213 816 L 206 822 L 203 829 L 205 834 L 210 839 L 220 844 L 229 846 L 253 846 L 272 842 L 307 827 L 331 810 L 358 780 L 375 750 L 405 660 L 423 638 L 440 629 L 451 627 L 451 488 L 441 497 L 429 503 L 408 505 L 392 500 L 384 495 L 374 485 L 368 473 L 369 467 L 372 464 L 380 464 L 389 479 L 397 485 L 408 489 L 421 489 L 436 482 L 443 474 L 447 464 L 451 463 L 451 102 Z M 614 121 L 557 223 L 468 224 L 468 281 L 601 281 L 627 288 L 651 301 L 670 318 L 685 339 L 693 357 L 698 380 L 698 400 L 691 429 L 674 458 L 658 474 L 656 474 L 653 479 L 651 478 L 652 480 L 647 483 L 645 482 L 646 484 L 630 493 L 615 498 L 610 497 L 608 499 L 593 501 L 468 501 L 468 531 L 554 532 L 573 576 L 627 568 L 630 566 L 630 513 L 635 507 L 725 489 L 730 489 L 744 500 L 746 499 L 753 471 L 735 451 L 735 306 L 736 287 L 749 273 L 730 258 L 726 254 L 726 251 L 731 248 L 755 268 L 774 248 L 767 233 L 746 205 L 727 224 L 722 221 L 722 216 L 740 199 L 740 197 L 722 180 L 720 180 L 683 218 L 678 218 L 675 215 L 676 212 L 714 173 L 686 153 L 663 140 L 639 129 Z M 579 673 L 556 677 L 525 678 L 515 698 L 508 699 L 492 697 L 490 704 L 490 725 L 498 772 L 504 789 L 521 818 L 536 832 L 554 842 L 569 847 L 588 849 L 611 845 L 631 835 L 645 821 L 647 817 L 647 809 L 641 806 L 631 806 L 606 820 L 589 822 L 577 819 L 569 814 L 558 801 L 551 785 L 540 788 L 520 799 L 516 799 L 519 792 L 534 784 L 549 779 L 548 775 L 553 771 L 573 766 L 591 767 L 592 756 L 590 755 L 575 753 L 554 753 L 551 755 L 544 755 L 541 740 L 541 724 L 546 725 L 550 748 L 565 745 L 579 745 L 594 748 L 598 728 L 598 725 L 596 725 L 594 700 L 588 682 L 583 674 Z M 284 336 L 305 339 L 324 351 L 337 371 L 343 392 L 342 421 L 337 437 L 330 449 L 318 462 L 307 469 L 286 474 L 264 470 L 250 462 L 240 452 L 231 436 L 226 412 L 230 382 L 235 370 L 243 358 L 261 343 Z M 827 630 L 822 632 L 818 637 L 818 640 L 823 644 L 827 653 L 827 666 L 823 677 L 841 687 L 843 689 L 841 690 L 842 693 L 818 682 L 812 690 L 800 697 L 803 714 L 790 722 L 773 727 L 745 726 L 743 720 L 752 701 L 743 698 L 737 702 L 725 719 L 720 718 L 717 716 L 717 713 L 732 695 L 731 693 L 723 690 L 711 681 L 696 692 L 717 706 L 715 712 L 712 713 L 689 699 L 670 682 L 669 675 L 677 670 L 677 668 L 658 664 L 642 666 L 634 670 L 627 677 L 621 695 L 623 706 L 626 713 L 651 734 L 676 747 L 699 755 L 701 754 L 706 736 L 716 718 L 723 719 L 723 721 L 721 722 L 719 720 L 719 723 L 721 722 L 721 724 L 711 743 L 708 757 L 729 760 L 748 760 L 769 757 L 788 751 L 812 738 L 828 724 L 845 700 L 851 683 L 853 660 L 849 646 L 838 633 Z M 468 291 L 468 305 L 593 304 L 616 310 L 636 321 L 651 335 L 664 356 L 671 383 L 670 404 L 663 426 L 652 443 L 641 454 L 628 463 L 601 473 L 468 473 L 468 486 L 604 486 L 620 482 L 641 472 L 651 465 L 665 451 L 674 438 L 684 414 L 687 383 L 683 362 L 673 340 L 653 316 L 628 300 L 602 292 Z M 468 99 L 468 129 L 498 129 L 503 122 L 512 121 L 517 124 L 520 130 L 519 138 L 512 144 L 504 144 L 498 139 L 468 139 L 468 155 L 499 155 L 504 149 L 512 148 L 521 156 L 519 167 L 513 171 L 505 171 L 499 165 L 468 165 L 468 196 L 536 196 L 559 152 L 584 112 L 559 106 L 524 101 Z M 468 539 L 468 598 L 475 598 L 476 600 L 506 600 L 569 594 L 568 587 L 548 539 Z M 796 295 L 785 317 L 782 334 L 802 335 L 805 340 L 803 344 L 781 343 L 780 413 L 816 408 L 818 341 L 823 316 L 829 302 Z M 777 258 L 745 290 L 744 449 L 753 457 L 753 459 L 756 457 L 760 426 L 762 322 L 768 302 L 774 290 L 785 276 L 780 259 Z M 43 686 L 40 698 L 44 701 L 51 714 L 53 720 L 53 731 L 51 736 L 55 743 L 65 741 L 78 748 L 89 760 L 92 771 L 101 776 L 106 777 L 111 771 L 119 768 L 136 769 L 152 776 L 157 782 L 158 787 L 165 787 L 171 786 L 176 776 L 190 767 L 203 763 L 212 763 L 223 770 L 238 760 L 238 750 L 244 740 L 242 735 L 206 755 L 175 764 L 137 765 L 103 756 L 82 745 L 62 728 L 48 706 Z M 583 338 L 569 343 L 561 350 L 557 359 L 557 368 L 562 379 L 575 388 L 582 390 L 600 389 L 609 384 L 615 377 L 618 369 L 618 359 L 614 350 L 605 342 L 593 338 Z M 594 115 L 577 141 L 542 205 L 468 205 L 468 215 L 551 215 L 587 146 L 604 120 L 604 117 Z M 862 679 L 855 702 L 844 721 L 825 741 L 808 753 L 779 765 L 757 769 L 725 769 L 695 763 L 692 763 L 691 765 L 704 771 L 711 779 L 712 784 L 723 787 L 727 787 L 735 778 L 750 773 L 765 775 L 769 777 L 774 784 L 788 780 L 793 769 L 806 758 L 817 754 L 831 757 L 839 749 L 839 736 L 844 725 L 853 716 L 862 713 L 868 704 L 862 695 Z M 662 508 L 638 514 L 638 573 L 631 576 L 578 583 L 576 586 L 580 593 L 618 587 L 639 581 L 648 581 L 677 573 L 677 571 L 669 572 L 654 569 L 656 570 L 655 574 L 653 576 L 650 575 L 650 571 L 652 571 L 649 556 L 651 532 L 657 518 L 667 509 Z M 379 775 L 371 778 L 360 795 L 341 815 L 328 826 L 307 839 L 274 852 L 235 857 L 249 865 L 259 865 L 263 864 L 271 855 L 286 849 L 299 849 L 305 851 L 310 856 L 317 854 L 322 851 L 326 835 L 337 823 L 350 817 L 364 818 L 365 814 L 369 812 L 367 805 L 368 795 L 374 781 Z M 267 355 L 254 364 L 249 374 L 251 387 L 260 393 L 269 393 L 278 389 L 287 376 L 287 366 L 285 362 L 276 355 Z M 499 660 L 497 661 L 492 680 L 492 688 L 496 689 L 509 689 L 518 670 L 559 670 L 576 667 L 571 662 L 559 662 L 558 660 L 524 662 Z M 558 686 L 564 686 L 571 689 L 576 694 L 579 701 L 579 707 L 576 714 L 571 719 L 563 722 L 552 720 L 548 717 L 543 707 L 545 695 L 552 688 Z M 724 498 L 706 502 L 714 506 L 722 515 L 725 522 L 725 535 L 723 536 L 722 545 L 717 556 L 705 567 L 705 570 L 713 567 L 722 558 L 740 513 L 741 508 L 739 506 L 734 504 L 728 498 Z M 570 632 L 560 635 L 508 641 L 504 643 L 506 643 L 505 645 L 508 647 L 525 648 L 573 645 L 574 632 Z M 838 330 L 835 336 L 832 356 L 831 394 L 838 390 L 838 367 L 841 347 L 844 344 L 851 346 L 851 337 L 849 333 Z M 194 767 L 196 768 L 194 774 L 187 777 L 180 785 L 179 795 L 183 800 L 191 800 L 192 798 L 194 799 L 193 796 L 198 795 L 188 796 L 185 793 L 186 788 L 195 782 L 209 779 L 212 782 L 212 785 L 215 782 L 217 784 L 216 777 L 212 773 L 204 771 L 200 772 L 197 770 L 197 767 Z M 125 775 L 120 776 L 113 781 L 111 784 L 111 792 L 118 793 L 115 790 L 115 787 L 119 784 L 136 786 L 143 791 L 143 795 L 139 800 L 141 800 L 141 802 L 146 801 L 150 794 L 149 786 L 139 778 Z M 497 796 L 492 809 L 500 812 L 511 824 L 515 832 L 514 844 L 520 849 L 527 846 L 541 847 L 526 837 L 515 826 L 506 814 Z M 350 825 L 340 831 L 333 841 L 332 853 L 338 859 L 345 856 L 344 853 L 341 854 L 339 852 L 338 848 L 340 843 L 349 834 L 353 832 L 359 833 L 359 839 L 356 842 L 359 839 L 362 840 L 364 837 L 364 830 L 360 826 Z M 411 717 L 405 722 L 401 732 L 401 746 L 403 751 L 408 755 L 416 753 L 418 749 L 418 742 L 413 748 L 408 744 L 410 729 L 413 723 L 417 721 L 416 717 Z M 285 857 L 271 865 L 269 870 L 269 876 L 271 878 L 277 877 L 275 875 L 276 869 L 291 864 L 299 866 L 299 871 L 297 873 L 300 872 L 300 874 L 304 872 L 305 863 L 301 859 L 296 857 Z M 576 775 L 558 780 L 564 792 L 578 786 L 590 784 L 590 775 Z M 391 777 L 382 784 L 377 794 L 376 806 L 381 813 L 388 813 L 392 809 L 392 805 L 390 807 L 384 806 L 384 798 L 387 791 L 393 783 L 397 782 L 397 777 Z M 752 782 L 744 784 L 736 789 L 734 799 L 737 802 L 741 801 L 740 795 L 742 793 L 749 791 L 761 791 L 763 793 L 762 799 L 767 797 L 768 791 L 766 787 L 760 783 Z M 546 849 L 558 859 L 562 868 L 570 870 L 574 870 L 580 863 L 590 859 L 570 857 Z M 63 749 L 59 751 L 56 759 L 59 754 L 68 758 L 76 767 L 76 773 L 75 775 L 71 774 L 72 777 L 74 779 L 79 779 L 83 772 L 79 759 L 71 751 Z M 678 771 L 671 776 L 673 776 L 673 780 L 676 777 L 689 780 L 696 785 L 696 792 L 701 793 L 703 785 L 699 778 L 688 772 Z M 638 841 L 619 852 L 603 857 L 614 861 L 617 865 L 625 863 L 629 852 Z M 613 547 L 619 549 L 622 553 L 622 559 L 616 565 L 608 564 L 604 558 L 606 551 Z M 557 695 L 552 701 L 552 706 L 557 712 L 564 712 L 569 708 L 569 699 L 564 695 Z M 471 768 L 470 772 L 473 775 L 476 785 L 476 790 L 474 793 L 471 793 L 471 795 L 474 799 L 477 799 L 482 795 L 483 781 L 480 772 L 475 768 Z M 762 703 L 759 706 L 754 719 L 772 718 L 774 704 Z M 587 792 L 570 798 L 569 802 L 575 808 L 578 808 L 582 804 L 594 799 L 592 792 Z M 817 763 L 806 769 L 800 776 L 798 784 L 801 789 L 806 788 L 804 781 L 811 774 L 819 769 L 826 770 L 822 764 Z M 530 854 L 524 859 L 524 864 L 526 865 L 529 860 L 535 861 L 545 867 L 547 870 L 546 874 L 550 876 L 552 873 L 552 866 L 550 863 L 539 855 Z M 532 685 L 539 685 L 539 714 L 537 718 L 532 717 Z M 596 866 L 587 869 L 581 874 L 581 881 L 583 883 L 588 883 L 587 877 L 590 875 L 604 872 L 610 873 L 608 868 Z M 861 722 L 853 728 L 848 739 L 849 747 L 852 750 L 858 748 L 858 746 L 855 745 L 855 739 L 860 730 L 866 725 L 865 722 Z M 694 669 L 680 678 L 680 680 L 682 680 L 688 687 L 702 676 L 698 670 Z M 489 818 L 489 821 L 500 833 L 501 839 L 499 843 L 503 845 L 506 842 L 507 837 L 502 823 L 496 818 Z M 535 544 L 541 545 L 545 550 L 545 555 L 541 560 L 534 560 L 529 554 L 530 548 Z M 614 770 L 613 785 L 615 791 L 631 785 L 621 778 Z M 34 706 L 34 710 L 39 720 L 39 726 L 37 729 L 41 732 L 45 727 L 44 713 L 40 707 Z M 647 845 L 642 848 L 637 855 L 636 865 L 638 867 L 643 866 L 641 861 L 652 847 L 652 845 Z M 789 701 L 783 704 L 782 716 L 795 712 L 793 701 Z M 596 806 L 587 811 L 584 815 L 599 817 L 606 814 Z M 872 671 L 868 678 L 868 689 L 872 696 L 876 696 L 877 692 L 874 691 L 873 687 L 875 672 Z M 559 698 L 563 698 L 567 702 L 566 707 L 561 710 L 555 706 L 555 702 Z M 725 280 L 730 281 L 729 299 L 723 298 Z M 644 515 L 647 515 L 650 518 L 650 521 L 647 524 L 641 521 L 641 518 Z M 486 757 L 482 762 L 482 765 L 489 774 Z M 224 862 L 227 866 L 240 871 L 234 864 Z M 861 653 L 863 676 L 867 662 L 865 661 L 866 664 L 863 662 Z M 414 662 L 410 667 L 404 690 L 407 680 L 411 678 L 408 678 L 409 673 L 412 675 L 411 672 L 413 672 L 410 672 L 410 670 L 413 669 L 416 671 L 412 668 L 412 666 L 415 666 L 413 665 Z M 506 129 L 505 135 L 509 136 L 511 132 L 509 129 Z M 612 553 L 611 558 L 615 559 L 616 554 Z M 399 712 L 396 722 L 403 713 L 402 712 L 399 715 Z M 468 816 L 467 825 L 471 818 L 471 816 Z M 509 156 L 506 158 L 508 163 L 510 163 Z M 535 550 L 535 554 L 538 555 L 539 550 Z M 205 844 L 205 847 L 211 849 Z M 811 415 L 809 417 L 813 418 L 814 416 Z M 233 573 L 236 574 L 234 579 Z"/>
</svg>
